<?xml version="1.0" encoding="utf-8"?><svg xmlns="http://www.w3.org/2000/svg" xmlns:xlink="http://www.w3.org/1999/xlink"><symbol fill="none" viewBox="0 0 13 24" id="arr" xmlns="http://www.w3.org/2000/svg"><path d="M12.348.666a.956.956 0 010 1.336L2.602 12l9.746 9.996a.956.956 0 010 1.336.91.91 0 01-1.304 0L.68 12.698a1 1 0 010-1.396L11.044.668a.91.91 0 011.304 0V.666z" fill="#000"/></symbol><symbol fill="none" viewBox="0 0 6 12" id="arr_white" xmlns="http://www.w3.org/2000/svg"><path d="M5.34 1.041a.418.418 0 010 .585L1.076 6l4.264 4.373a.418.418 0 01-.13.674.398.398 0 01-.44-.09L.234 6.306a.438.438 0 010-.61L4.77 1.042a.398.398 0 01.57 0z" fill="#fff"/></symbol><symbol fill="none" viewBox="0 0 16 20" id="phone" xmlns="http://www.w3.org/2000/svg"><path d="M4.385.48l-.86.258A4.2 4.2 0 00.58 4.163c-.356 2.482.44 5.383 2.362 8.711 1.916 3.32 4.026 5.458 6.348 6.394a4.2 4.2 0 004.458-.846l.652-.617a2.4 2.4 0 00.295-3.148l-1.628-2.256a1.8 1.8 0 00-1.986-.667l-2.46.752-.064.012c-.271.04-.897-.547-1.677-1.898-.816-1.414-.986-2.24-.76-2.454L7.37 6.978a2.996 2.996 0 00.69-3.42l-.793-1.765A2.4 2.4 0 004.386.48h-.002zm1.788 1.805l.793 1.765a1.796 1.796 0 01-.413 2.052l-1.255 1.17c-.804.759-.538 2.058.54 3.928 1.017 1.76 1.944 2.628 2.939 2.477l.148-.031 2.506-.765a.6.6 0 01.662.222l1.627 2.256a1.2 1.2 0 01-.147 1.575l-.652.616a3 3 0 01-3.183.604c-2.038-.82-3.964-2.773-5.758-5.88-1.797-3.114-2.525-5.762-2.213-7.94a3 3 0 012.105-2.447l.86-.26a1.2 1.2 0 011.44.658z" fill="#fff"/></symbol></svg>